<svg xmlns="http://www.w3.org/2000/svg" width="155" height="35" fill="none" viewBox="0 0 155 35">
  <path fill="#fff" d="M40.888 28V8.736h3.836V28h-3.836Zm-6.272-16.296V8.316h16.38v3.388h-16.38ZM50.444 28V14.476h3.668V28h-3.668Zm3.668-7.476-1.428-.952c.168-1.661.654-2.968 1.456-3.92.803-.97 1.96-1.456 3.472-1.456.654 0 1.242.112 1.764.336.523.205.999.55 1.428 1.036L58.508 18.2a1.925 1.925 0 0 0-.756-.504 2.628 2.628 0 0 0-.98-.168c-.784 0-1.428.252-1.932.756-.485.485-.728 1.232-.728 2.24Zm13.254 7.756c-1.232 0-2.343-.308-3.332-.924a6.44 6.44 0 0 1-2.324-2.52c-.56-1.064-.84-2.259-.84-3.584 0-1.344.28-2.548.84-3.612a6.44 6.44 0 0 1 2.324-2.52c.99-.616 2.1-.924 3.332-.924.97 0 1.839.196 2.604.588a4.576 4.576 0 0 1 1.82 1.652c.467.69.719 1.475.756 2.352v4.872c-.037.896-.29 1.69-.756 2.38a4.865 4.865 0 0 1-1.82 1.652c-.765.392-1.633.588-2.604.588Zm.672-3.388c1.027 0 1.857-.336 2.492-1.008.635-.69.952-1.577.952-2.66 0-.71-.15-1.335-.448-1.876a2.98 2.98 0 0 0-1.204-1.288c-.504-.317-1.101-.476-1.792-.476-.672 0-1.27.159-1.792.476a3.215 3.215 0 0 0-1.204 1.288c-.28.541-.42 1.167-.42 1.876 0 .728.14 1.372.42 1.932.299.541.7.97 1.204 1.288.523.299 1.12.448 1.792.448ZM71.286 28v-3.64l.588-3.304-.588-3.248v-3.332h3.64V28h-3.64Zm11.28 0-5.963-13.524h4.032l4.284 11.144H82.93l4.312-11.144h3.892L85.199 28h-2.632Zm16.319.28c-1.419 0-2.679-.299-3.78-.896a7.105 7.105 0 0 1-2.632-2.52c-.635-1.064-.952-2.277-.952-3.64 0-1.344.308-2.539.924-3.584a6.95 6.95 0 0 1 2.576-2.52c1.083-.635 2.287-.952 3.612-.952 1.307 0 2.455.299 3.444.896a6.08 6.08 0 0 1 2.352 2.408c.579 1.008.868 2.156.868 3.444 0 .243-.019.495-.056.756a5.603 5.603 0 0 1-.14.84l-11.368.028v-2.744l9.66-.028-1.484 1.148c-.037-.803-.187-1.475-.448-2.016a2.615 2.615 0 0 0-1.092-1.232c-.467-.299-1.045-.448-1.736-.448-.728 0-1.363.168-1.904.504a3.21 3.21 0 0 0-1.26 1.372c-.28.579-.42 1.27-.42 2.072 0 .821.15 1.54.448 2.156a3.467 3.467 0 0 0 1.344 1.4c.579.317 1.25.476 2.016.476.69 0 1.316-.112 1.876-.336a4.084 4.084 0 0 0 1.456-1.064l2.156 2.156a6.239 6.239 0 0 1-2.408 1.736c-.933.392-1.95.588-3.052.588Zm8.68-.28V7.756h3.668V28h-3.668Zm13.386.28c-1.418 0-2.678-.299-3.78-.896a7.114 7.114 0 0 1-2.632-2.52c-.634-1.064-.952-2.277-.952-3.64 0-1.344.308-2.539.924-3.584a6.959 6.959 0 0 1 2.576-2.52c1.083-.635 2.287-.952 3.612-.952 1.307 0 2.455.299 3.444.896a6.08 6.08 0 0 1 2.352 2.408c.579 1.008.868 2.156.868 3.444 0 .243-.018.495-.056.756a5.478 5.478 0 0 1-.14.84l-11.368.028v-2.744l9.66-.028-1.484 1.148c-.037-.803-.186-1.475-.448-2.016a2.604 2.604 0 0 0-1.092-1.232c-.466-.299-1.045-.448-1.736-.448-.728 0-1.362.168-1.904.504a3.214 3.214 0 0 0-1.26 1.372c-.28.579-.42 1.27-.42 2.072 0 .821.15 1.54.448 2.156a3.476 3.476 0 0 0 1.344 1.4c.579.317 1.251.476 2.016.476.691 0 1.316-.112 1.876-.336a4.075 4.075 0 0 0 1.456-1.064l2.156 2.156a6.239 6.239 0 0 1-2.408 1.736c-.933.392-1.95.588-3.052.588Zm14.449 0c-1.195 0-2.259-.252-3.192-.756a5.544 5.544 0 0 1-2.156-2.1c-.523-.896-.784-1.932-.784-3.108v-7.84h3.696v7.756c0 .56.093 1.045.28 1.456.186.392.466.69.84.896.373.205.812.308 1.316.308.765 0 1.362-.233 1.792-.7.429-.467.644-1.12.644-1.96v-7.756h3.668v7.84c0 1.195-.262 2.24-.784 3.136a5.313 5.313 0 0 1-2.156 2.1c-.915.485-1.97.728-3.164.728Zm9.025-.28V14.476h3.668V28h-3.668Zm3.668-7.476-1.428-.952c.168-1.661.653-2.968 1.456-3.92.802-.97 1.96-1.456 3.472-1.456.653 0 1.241.112 1.764.336.522.205.998.55 1.428 1.036l-2.296 2.632a1.935 1.935 0 0 0-.756-.504 2.63 2.63 0 0 0-.98-.168c-.784 0-1.428.252-1.932.756-.486.485-.728 1.232-.728 2.24Z"/>
  <path fill="#fff" fill-rule="evenodd" d="M.7 11.86C0 13.142 0 14.687 0 17.776v2.054c0 5.266 0 7.899 1.582 9.535C3.163 31 5.709 31 10.8 31h5.4c5.091 0 7.637 0 9.218-1.636C27 27.728 27 25.094 27 19.829v-2.054c0-3.09 0-4.634-.7-5.914-.702-1.28-1.982-2.076-4.543-3.665l-2.7-1.676C16.349 4.84 14.996 4 13.5 4c-1.496 0-2.85.84-5.557 2.52l-2.7 1.676c-2.56 1.59-3.841 2.384-4.542 3.665Zm9.353 10.227a1.012 1.012 0 1 0-1.206 1.626 7.784 7.784 0 0 0 4.653 1.55c1.735 0 3.34-.577 4.653-1.55a1.012 1.012 0 1 0-1.206-1.626 5.76 5.76 0 0 1-3.447 1.15 5.76 5.76 0 0 1-3.447-1.15Z" clip-rule="evenodd"/>
</svg>
